<svg width="18" height="18" viewBox="0 0 18 18" fill="none" xmlns="http://www.w3.org/2000/svg">
<g clip-path="url(#clip0_1_99)">
<path d="M16.8168 2.51924C16.7845 2.28716 16.6175 2.09626 16.3918 2.03351L9.15724 0.0215904C9.0541 -0.00711543 8.94516 -0.00711543 8.84195 0.0215904L1.60744 2.03351C1.38171 2.09626 1.21473 2.28708 1.18242 2.51924C1.14046 2.82096 0.183201 9.95006 2.63849 13.4966C5.09089 17.0388 8.70869 17.9466 8.86148 17.9836C8.90689 17.9945 8.95316 17.9999 8.99959 17.9999C9.04602 17.9999 9.0923 17.9945 9.13771 17.9836C9.29057 17.9466 12.9084 17.0388 15.3607 13.4966C17.816 9.95014 16.8587 2.82104 16.8168 2.51924ZM13.6649 6.68128L8.73026 11.6159C8.61544 11.7308 8.46485 11.7883 8.31434 11.7883C8.16383 11.7883 8.01324 11.7308 7.89842 11.6159L4.84736 8.56489C4.737 8.45461 4.67504 8.30496 4.67504 8.14896C4.67504 7.99296 4.73708 7.84332 4.84736 7.73304L5.45316 7.12724C5.68289 6.89759 6.05536 6.89751 6.28501 7.12724L8.31434 9.15657L12.2273 5.24355C12.3376 5.1332 12.4872 5.07124 12.6432 5.07124C12.7992 5.07124 12.9488 5.1332 13.0591 5.24355L13.6649 5.84936C13.8947 6.07908 13.8947 6.45155 13.6649 6.68128Z" fill="#008AFF"/>
</g>
<defs>
<clipPath id="clip0_1_99">
<rect width="18" height="18" fill="white"/>
</clipPath>
</defs>
</svg>
